# AST/ASF file generated using VICON BodyLanguage
# -----------------------------------------------
:version 1.10
:name VICON
:units
  mass 1.0
  length 0.45
  angle deg
:documentation
   .ast/.asf automatically generated from VICON data using
   VICON BodyBuilder and BodyLanguage model FoxedUp or BRILLIANT.MOD
:root
   order TX TY TZ RX RY RZ
   axis XYZ
   position 0 0 0  
   orientation 0 0 0 
:bonedata
  begin
     id 1 
     name lhipjoint
     direction 0.660183 -0.676772 0.325788 
     length 2.75133 
     axis 0 0 0  XYZ
  end
  begin
     id 2 
     name lfemur
     direction 0.34202 -0.939693 0  
     length 7.70317  
     axis 0 0 20  XYZ
    dof rx ry rz
    limits (-160.0 20.0)
           (-70.0 70.0)
           (-60.0 70.0)
  end
  begin
     id 3 
     name ltibia
     direction 0.342105 -0.939662 0   
     length 7.18701   
     axis 0 0 20   XYZ
    dof rx
    limits (-10.0 170.0)
  end
  begin
     id 4 
     name lfoot
     direction 0.14163 -0.389126 0.910232   
     length 2.41719   
     axis -90 7.62852e-016 20   XYZ
    dof rx rz
    limits (-45.0 90.0)
           (-70.0 20.0)
  end
  begin
     id 5 
     name ltoes
     direction 1.53533e-011 -4.21926e-011 1   
     length 1.18611   
     axis -90 7.62852e-016 20   XYZ
    dof rx
    limits (-90.0 20.0)
  end
  begin
     id 6 
     name rhipjoint
     direction -0.6658 -0.67229 0.323631   
     length 2.76968  
     axis 0 0 0  XYZ 
  end
  begin
     id 7 
     name rfemur
     direction -0.34202 -0.939693 0   
     length 7.92547   
     axis 0 0 -20   XYZ
    dof rx ry rz
    limits (-160.0 20.0)
           (-70.0 70.0)
           (-70.0 60.0)
  end
  begin
     id 8 
     name rtibia
     direction -0.342022 -0.939692 0   
     length 7.22641   
     axis 0 0 -20   XYZ
    dof rx
    limits (-10.0 170.0)
 end
 begin
     id 9 
     name rfoot
     direction -0.105675 -0.29034 0.951071   
     length 2.48149  
     axis -90 -7.62852e-016 -20   XYZ
    dof rx rz
    limits (-45.0 90.0)
           (-20.0 70.0)
  end
  begin
     id 10 
     name rtoes
     direction -1.5349e-011 -4.21859e-011 1   
     length 1.23343   
     axis -90 -7.62852e-016 -20   XYZ
    dof rx
    limits (-90.0 20.0)
  end
  begin
     id 11 
     name lowerback
     direction 0.0104173 0.993624 -0.112266   
     length 2.00527   
     axis 0 0 0   XYZ
    dof rx ry rz
    limits (-20.0 45.0)
           (-30.0 30.0)
           (-30.0 30.0)
  end
  begin
     id 12 
     name upperback
     direction 0.00733149 0.999856 -0.0152913   
     length 2.01385   
     axis 0 0 0   XYZ
    dof rx ry rz
    limits (-20.0 45.0)
           (-30.0 30.0)
           (-30.0 30.0)
  end
  begin
     id 13 
     name thorax
     direction 0.0026304 0.999318 0.036841   
     length 2.03734   
     axis 0 0 0   XYZ
    dof rx ry rz
    limits (-20.0 45.0)
           (-30.0 30.0)
           (-30.0 30.0)
  end
  begin
     id 14 
     name lowerneck
     direction 0.0293154 0.998757 0.0403082   
     length 1.65303   
     axis 0 0 0   XYZ
    dof rx ry rz
    limits (-20.0 45.0)
           (-30.0 30.0)
           (-30.0 30.0)
  end
  begin
     id 15 
     name upperneck
     direction -0.0376619 0.998184 -0.0470083   
     length 1.60926   
     axis 0 0 0   XYZ
    dof rx ry rz
    limits (-20.0 45.0)
           (-30.0 30.0)
           (-30.0 30.0)
  end
  begin
     id 16
     name head
     direction -0.0170133 0.999635 -0.0209778  
     length 1.73625  
     axis 0 0 0   XYZ
    dof rx ry rz
    limits (-20.0 45.0)
           (-30.0 30.0)
           (-30.0 30.0)
  end
  begin
     id 17 
     name lclavicle
     direction 0.919857 0.39181 -0.0186333  
     length 3.75313  
     axis 0 0 0   XYZ
    dof ry rz
    limits (-20.0 10.0)
           (0.0 20.0)
  end
  begin
     id 18 
     name lhumerus
     direction 1 -4.48988e-011 1.44029e-027   
     length 5.49313   
     axis 180 -30 -90   XYZ
    dof rx ry rz
    limits (-60.0 90.0)
           (-90.0 90.0)
           (-90.0 90.0)
  end
  begin
     id 19
     name lradius
     direction 1 -4.48924e-011 7.46281e-027   
     length 3.29037   
     axis 180 -30 -90   XYZ
    dof rx
    limits (-10.0 170.0)
  end
  begin
     id 20
     name lwrist
     direction 1 -4.48955e-011 2.19879e-026   
     length 1.64519   
     axis -1.34358e-014 90 90   XYZ
    dof ry
    limits (-180.0 0.0)
 end
  begin
     id 21 
     name lhand
     direction 1 -4.48978e-011 4.39747e-026   
     length 0.729656   
     axis -2.80598e-014 90 90   XYZ
    dof rx rz
    limits (-90.0 90.0)
           (-45.0 45.0)
  end
  begin
     id 22 
     name lfingers
     direction 1 -4.49071e-011 8.79411e-026   
     length 0.588268   
     axis -5.61193e-014 90 90   XYZ
    dof rx
    limits (0.0 90.0)
  end
  begin
     id 23
     name lthumb
     direction 0.707107 -6.34817e-011 0.707107   
     length 0.844638   
     axis -90 45 -9.86923e-015   XYZ
    dof rx rz
    limits (-45.0 45.0)
           (-45.0 45.0)
  end
  begin
     id 24 
     name rclavicle
     direction -0.919898 0.388279 0.0550233   
     length 3.7171  
     axis 0 0 0   XYZ 
    dof ry rz
    limits (-10.0 20.0)
           (-20.0 0.0)
  end
  begin
     id 25 
     name rhumerus
     direction -1 -4.48968e-011 9.98372e-028  
     length 5.23684   
     axis 180 30 90   XYZ
    dof rx ry rz
    limits (-90.0 60.0)
           (-90.0 90.0)
           (-90.0 90.0)
  end
  begin
     id 26 
     name rradius
     direction -1 -4.48956e-011 1.01023e-026   
     length 3.38251   
     axis 180 30 90   XYZ
    dof rx
    limits (-10.0 170.0)
  end
  begin
     id 27 
     name rwrist
     direction -1 -4.4892e-011 2.19886e-026   
     length 1.69126   
     axis -1.34358e-014 -90 -90   XYZ
    dof ry
    limits (-180.0 0.0)
  end
  begin
     id 28
     name rhand
     direction -1 -4.49024e-011 4.39727e-026   
     length 0.691454   
     axis -2.80598e-014 -90 -90   XYZ
    dof rx rz
    limits (-90.0 90.0)
           (-45.0 45.0)
  end
  begin
     id 29
     name rfingers
     direction -1 -4.49097e-011 8.79388e-026   
     length 0.557468   
     axis -5.61193e-014 -90 -90   XYZ
    dof rx
    limits (0.0 90.0)
  end
  begin
     id 30
     name rthumb
     direction -0.707107 -6.34938e-011 0.707107   
     length 0.800416   
     axis -90 -45 9.86923e-015   XYZ
    dof rx rz
    limits (-45.0 45.0)
           (-45.0 45.0)
  end
:hierarchy
  begin
    root lhipjoint rhipjoint lowerback
    lhipjoint lfemur
    lfemur ltibia
    ltibia lfoot
    lfoot ltoes
    rhipjoint rfemur
    rfemur rtibia
    rtibia rfoot
    rfoot rtoes
    lowerback upperback
    upperback thorax
    thorax lowerneck lclavicle rclavicle
    lowerneck upperneck
    upperneck head
    lclavicle lhumerus
    lhumerus lradius
    lradius lwrist
    lwrist lhand lthumb
    lhand lfingers
    rclavicle rhumerus
    rhumerus rradius
    rradius rwrist
    rwrist rhand rthumb
    rhand rfingers
  end

#!OML:ASF H:\BabyWalks\Project 1\Capture day 1\Session 1\baby.ASF
:FULLY-SPECIFIED
:DEGREES
379
root -31.5171 17.626 -2.60458 -6.86668 80.2699 -9.67156
lowerback 15.9877 0.00818307 -0.282872
upperback 3.48634 0.167123 0.83608
thorax -5.24997 0.153495 1.00434
lowerneck 1.86715 2.6472 5.8155
upperneck -12.0306 3.09323 -9.35853
head -3.6161 1.80703 -3.936
rclavicle -1.58438e-014 -1.07592e-014
rhumerus -77.9883 57.2076 -116.233
rradius 80.9629
rwrist 21.5231
rhand -16.9409 16.3728
rfingers 7.12502
rthumb 9.2924 -13.4024
lclavicle -1.58438e-014 -1.07592e-014
lhumerus -68.3055 -49.5936 108.573
lradius 78.926
lwrist -5.61844
lhand -5.45986 -17.726
lfingers 7.12502
lthumb 20.3515 11.2276
rfemur -18.7452 -6.36575 19.9809
rtibia 42.7161
rfoot -22.7039 -6.99545
rtoes -13.7097
lfemur -14.1201 -2.74627 -14.8256
ltibia 31.1726
lfoot -23.248 5.51011
ltoes 6.64065
380
root -31.5056 17.626 -2.62581 -6.03727 80.1241 -8.61081
lowerback 15.8916 -0.0538905 -0.214672
upperback 3.4821 0.0965755 0.857795
thorax -5.20103 0.11752 1.00268
lowerneck 1.91658 2.78421 5.8441
upperneck -11.9051 3.27369 -9.482
head -3.56914 1.89924 -3.98158
rclavicle -2.16178e-015 -3.00662e-015
rhumerus -77.8971 57.0212 -115.947
rradius 81.0651
rwrist 21.5869
rhand -16.9153 16.3433
rfingers 7.12502
rthumb 9.31708 -13.4308
lclavicle -2.16178e-015 -3.00662e-015
lhumerus -68.4109 -49.4748 108.664
lradius 78.9493
lwrist -5.61267
lhand -5.56753 -17.6928
lfingers 7.12502
lthumb 20.248 11.2718
rfemur -18.4327 -6.77642 19.9704
rtibia 44.2376
rfoot -22.6522 -7.67885
rtoes -13.0542
lfemur -13.7139 -2.79547 -15.1081
ltibia 30.9923
lfoot -23.2018 5.72519
ltoes 6.30717
381
root -31.4925 17.6259 -2.64418 -5.33373 79.9805 -7.66047
lowerback 15.8003 -0.115437 -0.143168
upperback 3.47224 0.027374 0.885841
thorax -5.16082 0.0821788 1.00539
lowerneck 1.97813 2.92415 5.8755
upperneck -11.7427 3.45906 -9.61639
head -3.51223 1.99371 -4.03032
rclavicle 2.23633e-016 1.67973e-014
rhumerus -77.883 56.8723 -115.728
rradius 81.179
rwrist 21.579
rhand -16.9194 16.3025
rfingers 7.12502
rthumb 9.31314 -13.4718
lclavicle 2.23633e-016 1.67973e-014
lhumerus -68.4769 -49.2965 108.695
lradius 78.9959
lwrist -5.63529
lhand -5.61567 -17.6488
lfingers 7.12502
lthumb 20.2018 11.3207
rfemur -17.9921 -7.15975 19.979
rtibia 45.6073
rfoot -22.4799 -8.29098
rtoes -12.3814
lfemur -13.2762 -2.84806 -15.3659
ltibia 30.8014
lfoot -23.1759 5.92602
ltoes 6.02453
382
root -31.4778 17.6255 -2.65989 -4.72532 79.8345 -6.79895
lowerback 15.6997 -0.17376 -0.0685291
upperback 3.45806 -0.0371921 0.918905
thorax -5.12031 0.0490093 1.01051
lowerneck 2.03765 3.0652 5.90219
upperneck -11.5327 3.64759 -9.75203
head -3.4403 2.089 -4.07733
rclavicle -1.91082e-014 8.74653e-015
rhumerus -77.9304 56.7611 -115.567
rradius 81.296
rwrist 21.497
rhand -16.9719 16.2322
rfingers 7.12502
rthumb 9.26245 -13.5444
lclavicle -1.91082e-014 8.74653e-015
lhumerus -68.4968 -49.0664 108.666
lradius 79.0538
lwrist -5.6738
lhand -5.58381 -17.585
lfingers 7.12502
lthumb 20.2324 11.3812
rfemur -17.4317 -7.4941 19.9976
rtibia 46.7823
rfoot -22.1996 -8.74557
rtoes -11.7331
lfemur -12.8209 -2.89461 -15.6022
ltibia 30.613
lfoot -23.1658 6.11531
ltoes 5.81101
383
root -31.4618 17.6245 -2.67267 -4.20411 79.6779 -6.02953
lowerback 15.5816 -0.224624 0.00516214
upperback 3.43745 -0.0923678 0.958292
thorax -5.0773 0.0203234 1.02076
lowerneck 2.09043 3.20493 5.91937
upperneck -11.2774 3.83648 -9.88076
head -3.35385 2.18346 -4.11914
rclavicle 1.63749e-014 -1.09332e-015
rhumerus -78.0297 56.6837 -115.454
rradius 81.4107
rwrist 21.3516
rhand -16.9977 16.1754
rfingers 7.12502
rthumb 9.23761 -13.6023
lclavicle 1.63749e-014 -1.09332e-015
lhumerus -68.4755 -48.7906 108.586
lradius 79.114
lwrist -5.70791
lhand -5.49459 -17.5112
lfingers 7.12502
lthumb 20.3181 11.446
rfemur -16.7648 -7.7582 20.0296
rtibia 47.729
rfoot -21.8209 -8.99405
rtoes -11.1801
lfemur -12.3684 -2.91795 -15.8122
ltibia 30.4447
lfoot -23.1979 6.28514
ltoes 5.65828
384
root -31.4445 17.6225 -2.68258 -3.78629 79.5104 -5.37776
lowerback 15.4439 -0.267699 0.0864435
upperback 3.40552 -0.136584 1.00382
thorax -5.03585 -0.00327591 1.03083
lowerneck 2.12798 3.34139 5.91322
upperneck -10.9705 4.02426 -9.98199
head -3.25071 2.27565 -4.14673
rclavicle -2.16178e-014 1.80894e-014
rhumerus -78.1755 56.6258 -115.383
rradius 81.5187
rwrist 21.168
rhand -17.0298 16.1027
rfingers 7.12502
rthumb 9.2066 -13.6763
lclavicle -2.16178e-014 1.80894e-014
lhumerus -68.4283 -48.4774 108.472
lradius 79.1702
lwrist -5.72124
lhand -5.36587 -17.4263
lfingers 7.12502
lthumb 20.4418 11.5177
rfemur -16.0035 -7.94477 20.0815
rtibia 48.4244
rfoot -21.3606 -9.02746
rtoes -10.8722
lfemur -11.9367 -2.9068 -15.9893
ltibia 30.3113
lfoot -23.266 6.42754
ltoes 5.57377
385
root -31.4263 17.6189 -2.68981 -3.42321 79.3336 -4.80751
lowerback 15.2771 -0.301879 0.173415
upperback 3.36024 -0.169194 1.05195
thorax -4.99291 -0.0215347 1.0379
lowerneck 2.15286 3.47023 5.87844
upperneck -10.6254 4.20508 -10.0471
head -3.13632 2.36277 -4.15684
rclavicle -5.46658e-015 -1.37161e-014
rhumerus -78.3516 56.5783 -115.341
rradius 81.6183
rwrist 20.9687
rhand -17.0769 15.9951
rfingers 7.12502
rthumb 9.16111 -13.7859
lclavicle -5.46658e-015 -1.37161e-014
lhumerus -68.3581 -48.1389 108.331
lradius 79.22
lwrist -5.71596
lhand -5.18413 -17.3217
lfingers 7.12502
lthumb 20.6165 11.6034
rfemur -15.1687 -8.05049 20.1487
rtibia 48.8557
rfoot -20.8581 -8.83359
rtoes -10.8662
lfemur -11.5502 -2.85811 -16.1392
ltibia 30.2303
lfoot -23.3587 6.54021
ltoes 5.54361
386
root -31.4071 17.6137 -2.69419 -3.12191 79.148 -4.33025
lowerback 15.0732 -0.324836 0.265454
upperback 3.30309 -0.187308 1.10397
thorax -4.94257 -0.0330239 1.04309
lowerneck 2.1792 3.58679 5.81709
upperneck -10.2646 4.37229 -10.0741
head -3.0205 2.44206 -4.15004
rclavicle -1.43622e-014 5.56597e-015
rhumerus -78.5468 56.5316 -115.315
rradius 81.7107
rwrist 20.772
rhand -17.0752 15.879
rfingers 7.12502
rthumb 9.16277 -13.902
lclavicle -1.43622e-014 5.56597e-015
lhumerus -68.2751 -47.7891 108.177
lradius 79.2634
lwrist -5.69163
lhand -4.99566 -17.2094
lfingers 7.12502
lthumb 20.7976 11.696
rfemur -14.2712 -8.06947 20.2371
rtibia 49.0175
rfoot -20.3608 -8.4273
rtoes -11.2656
lfemur -11.2223 -2.76849 -16.2573
ltibia 30.2176
lfoot -23.4844 6.61849
ltoes 5.5482
387
root -31.3876 17.6063 -2.69579 -2.89288 78.9579 -3.95931
lowerback 14.8359 -0.337086 0.365456
upperback 3.23585 -0.191107 1.16014
thorax -4.88478 -0.03779 1.04517
lowerneck 2.20947 3.68923 5.72916
upperneck -9.90562 4.52272 -10.0603
head -2.90931 2.51226 -4.12612
rclavicle -1.27719e-014 4.77083e-015
rhumerus -78.7422 56.4826 -115.297
rradius 81.7922
rwrist 20.5984
rhand -16.9939 15.7872
rfingers 7.12502
rthumb 9.24119 -13.9903
lclavicle -1.27719e-014 4.77083e-015
lhumerus -68.179 -47.4382 108.012
lradius 79.3035
lwrist -5.65562
lhand -4.78433 -17.0796
lfingers 7.12502
lthumb 21.0006 11.8034
rfemur -13.3204 -8.00488 20.353
rtibia 48.9102
rfoot -19.9212 -7.8425
rtoes -12.1177
lfemur -10.9665 -2.63135 -16.3383
ltibia 30.2884
lfoot -23.6682 6.648
ltoes 5.53199
388
root -31.3678 17.5964 -2.69461 -2.74309 78.7658 -3.70091
lowerback 14.5616 -0.337932 0.473525
upperback 3.16328 -0.179738 1.22019
thorax -4.81251 -0.0353332 1.04367
lowerneck 2.25164 3.77602 5.62177
upperneck -9.56377 4.65359 -10.0095
head -2.80864 2.57241 -4.08806
rclavicle -1.02374e-014 -6.75868e-015
rhumerus -78.9256 56.4238 -115.272
rradius 81.8665
rwrist 20.4592
rhand -16.9682 15.6293
rfingers 7.12502
rthumb 9.26599 -14.1471
lclavicle -1.02374e-014 -6.75868e-015
lhumerus -68.07 -47.0994 107.838
lradius 79.3445
lwrist -5.61644
lhand -4.54821 -16.9462
lfingers 7.12502
lthumb 21.2274 11.9115
rfemur -12.3233 -7.86027 20.5014
rtibia 48.5399
rfoot -19.5805 -7.14116
rtoes -13.3678
lfemur -10.788 -2.44602 -16.379
ltibia 30.4511
lfoot -23.8882 6.63631
ltoes 5.46705
389
root -31.3483 17.5836 -2.69072 -2.68391 78.5794 -3.56022
lowerback 14.2681 -0.330389 0.593683
upperback 3.08488 -0.156442 1.28249
thorax -4.73584 -0.027185 1.03546
lowerneck 2.31451 3.84693 5.50283
upperneck -9.25453 4.76388 -9.92689
head -2.72424 2.62242 -4.03939
rclavicle -3.07122e-014 -6.75868e-015
rhumerus -79.0914 56.3519 -115.244
rradius 81.9313
rwrist 20.3584
rhand -16.8491 15.5005
rfingers 7.12502
rthumb 9.38093 -14.2707
lclavicle -3.07122e-014 -6.75868e-015
lhumerus -67.9558 -46.7774 107.658
lradius 79.3931
lwrist -5.57579
lhand -4.31475 -16.8143
lfingers 7.12502
lthumb 21.4517 12.018
rfemur -11.2794 -7.65088 20.6856
rtibia 47.9156
rfoot -19.4018 -6.38829
rtoes -14.8267
lfemur -10.6866 -2.21182 -16.3758
ltibia 30.7117
lfoot -24.1683 6.54684
ltoes 5.3494
390
root -31.3293 17.5681 -2.68403 -2.6997 78.4022 -3.51427
lowerback 13.9436 -0.311764 0.715445
upperback 3.01668 -0.119255 1.34761
thorax -4.6313 -0.0120414 1.02667
lowerneck 2.4095 3.9 5.38632
upperneck -9.0048 4.84952 -9.82588
head -2.66546 2.66116 -3.98747
rclavicle -2.11706e-014 1.19271e-015
rhumerus -79.1994 56.2692 -115.18
rradius 81.985
rwrist 20.2876
rhand -16.7502 15.3493
rfingers 7.12502
rthumb 9.47638 -14.4176
lclavicle -2.11706e-014 1.19271e-015
lhumerus -67.8138 -46.4921 107.462
lradius 79.4496
lwrist -5.54598
lhand -4.05235 -16.6777
lfingers 7.12502
lthumb 21.7037 12.1257
rfemur -10.1941 -7.38278 20.9022
rtibia 47.0513
rfoot -19.4218 -5.69845
rtoes -16.2822
lfemur -10.6567 -1.92117 -16.331
ltibia 31.0714
lfoot -24.4931 6.37002
ltoes 5.15189
391
root -31.3114 17.5499 -2.67453 -2.81667 78.2413 -3.57717
lowerback 13.6275 -0.287073 0.846567
upperback 2.95146 -0.0731891 1.41261
thorax -4.52796 0.00761722 1.0112
lowerneck 2.53497 3.93921 5.28047
upperneck -8.80668 4.91606 -9.71138
head -2.6288 2.69111 -3.93501
rclavicle 1.59028e-014 1.82882e-014
rhumerus -79.2687 56.167 -115.105
rradius 82.0237
rwrist 20.2448
rhand -16.5621 15.2552
rfingers 7.12502
rthumb 9.65789 -14.5034
lclavicle 1.59028e-014 1.82882e-014
lhumerus -67.6651 -46.2378 107.257
lradius 79.5218
lwrist -5.52739
lhand -3.76961 -16.5496
lfingers 7.12502
lthumb 21.9752 12.2222
rfemur -9.07305 -7.06295 21.1532
rtibia 45.9693
rfoot -19.6587 -5.1669
rtoes -17.6084
lfemur -10.688 -1.56339 -16.239
ltibia 31.5282
lfoot -24.8619 6.08217
ltoes 4.86013
392
root -31.295 17.5291 -2.66253 -3.02411 78.0995 -3.72764
lowerback 13.3404 -0.258409 0.989107
upperback 2.89065 -0.0204247 1.47358
thorax -4.4355 0.0307553 0.984341
lowerneck 2.69005 3.9678 5.18594
upperneck -8.65978 4.96791 -9.58227
head -2.61358 2.71432 -3.8818
rclavicle -1.53064e-014 3.97569e-015
rhumerus -79.2981 56.0446 -115.021
rradius 82.0459
rwrist 20.2269
rhand -16.3945 15.1587
rfingers 7.12502
rthumb 9.81956 -14.5923
lclavicle -1.53064e-014 3.97569e-015
lhumerus -67.5111 -46.018 107.044
lradius 79.6112
lwrist -5.52133
lhand -3.51885 -16.4459
lfingers 7.12502
lthumb 22.2159 12.2974
rfemur -7.92837 -6.70293 21.4306
rtibia 44.7031
rfoot -20.1253 -4.8491
rtoes -18.6102
lfemur -10.7717 -1.13215 -16.1037
ltibia 32.0779
lfoot -25.234 5.67313
ltoes 4.48542
393
root -31.2809 17.5054 -2.64822 -3.28821 77.9804 -3.92381
lowerback 13.0827 -0.224644 1.13387
upperback 2.84678 0.0393652 1.52837
thorax -4.34108 0.0578011 0.948968
lowerneck 2.90541 3.98446 5.14295
upperneck -8.34639 5.04535 -9.16993
head -2.85292 2.71769 -4.16314
rclavicle -4.17448e-015 -1.07344e-014
rhumerus -79.2571 55.9072 -114.907
rradius 82.0472
rwrist 20.2233
rhand -16.2258 15.0749
rfingers 7.12502
rthumb 9.98229 -14.6684
lclavicle -4.17448e-015 -1.07344e-014
lhumerus -67.3337 -45.8469 106.814
lradius 79.7154
lwrist -5.53058
lhand -3.29532 -16.3729
lfingers 7.12502
lthumb 22.4305 12.3446
rfemur -6.77826 -6.31523 21.7231
rtibia 43.3006
rfoot -20.7982 -4.79454
rtoes -19.2211
lfemur -10.9047 -0.618359 -15.9341
ltibia 32.7234
lfoot -25.6046 5.13503
ltoes 3.99694
